<?xml version="1.0" standalone="no"?>
<!DOCTYPE svg PUBLIC "-//W3C//DTD SVG 20010904//EN"
"http://www.w3.org/TR/2001/REC-SVG-20010904/DTD/svg10.dtd">
<svg version="1.0" xmlns="http://www.w3.org/2000/svg"
width="608.000000pt" height="608.000000pt" viewBox="0 0 608.000000 608.000000"
preserveAspectRatio="xMidYMid meet">
<metadata>
Created by potrace 1.11, written by Peter Selinger 2001-2013
</metadata>
<g transform="translate(0.000000,608.000000) scale(0.100000,-0.100000)"
fill="#000000" stroke="none">
<path d="M4116 6047 c-39 -44 -100 -181 -132 -297 -27 -97 -65 -253 -70 -285
-11 -67 -20 -84 -46 -80 -48 9 -366 17 -678 17 -415 1 -797 -12 -1070 -38 -36
-3 -83 -7 -105 -9 -22 -1 -75 -6 -117 -10 -70 -6 -78 -5 -78 10 0 9 -6 31 -14
48 -7 18 -26 64 -42 102 -59 147 -158 296 -237 357 -58 45 -76 54 -122 56 -35
2 -43 -1 -62 -30 -23 -34 -50 -123 -59 -193 -2 -22 -7 -51 -9 -65 -5 -31 -13
-215 -21 -480 -3 -113 -7 -277 -10 -365 -2 -88 -5 -193 -6 -233 l-1 -72 -61
-52 c-99 -84 -286 -277 -358 -368 -37 -47 -79 -98 -93 -115 -14 -16 -25 -35
-25 -42 0 -6 -3 -13 -8 -15 -8 -3 -58 -79 -115 -174 -44 -73 -165 -324 -183
-379 -2 -5 -21 -60 -42 -120 -41 -117 -69 -220 -87 -315 -2 -14 -9 -46 -13
-72 l-9 -48 51 -1 c28 -1 67 -3 86 -4 34 -3 222 -12 388 -19 69 -3 87 -8 103
-25 10 -11 19 -23 19 -27 0 -7 131 -185 155 -210 5 -6 30 -35 55 -65 62 -75
302 -314 375 -375 33 -27 62 -52 65 -55 15 -19 276 -209 286 -209 7 0 14 -4
16 -9 9 -25 421 -253 578 -320 63 -27 260 -102 275 -105 6 -1 27 -8 49 -15 52
-18 101 -8 188 37 84 44 121 65 128 72 3 3 28 20 55 38 28 17 58 37 67 44 10
7 34 24 54 38 19 14 67 49 105 78 38 28 74 52 79 52 6 0 10 3 10 8 0 4 23 23
50 42 27 19 50 38 50 43 0 4 7 7 15 7 7 0 18 6 22 13 4 6 33 31 63 54 122 94
241 203 480 443 224 224 260 262 375 396 83 96 102 118 136 164 38 53 89 145
89 164 0 9 4 16 9 16 5 0 14 19 19 43 l11 43 88 28 c48 16 106 35 128 42 35
11 216 58 270 70 43 10 122 25 155 30 19 3 37 8 39 10 4 4 -13 48 -54 139
-194 435 -522 834 -917 1115 -27 18 -48 41 -49 49 -1 38 -18 226 -24 276 -2
17 -7 64 -10 105 -4 41 -9 82 -10 90 -3 16 -11 83 -20 165 -3 28 -7 61 -10 75
-2 14 -7 45 -10 70 -9 78 -15 124 -20 150 -3 14 -7 45 -11 70 -3 25 -7 54 -9
65 -1 11 -6 43 -10 70 -4 28 -9 59 -11 70 -8 38 -14 72 -19 106 -21 144 -67
185 -129 116z m358 -2838 c-1 -124 -6 -179 -15 -179 -12 0 -144 -125 -369
-350 -236 -237 -267 -269 -395 -415 -44 -49 -84 -95 -90 -101 -225 -247 -340
-362 -535 -534 -46 -41 -90 -80 -96 -85 -6 -6 -39 -33 -73 -60 -34 -28 -74
-60 -88 -72 l-26 -21 -21 26 c-61 80 -245 223 -560 434 -10 7 -24 19 -32 26
-7 6 -17 12 -23 12 -6 0 -11 4 -11 8 0 4 -12 15 -27 24 -16 9 -37 24 -48 32
-11 9 -81 62 -155 117 -248 187 -316 246 -541 471 l-176 177 3 43 c2 24 6 106
9 182 3 77 7 141 9 143 5 5 41 11 95 18 25 3 55 7 66 9 25 5 108 16 155 20 19
2 49 6 65 9 17 3 57 8 90 12 33 3 71 8 85 10 22 3 99 12 170 20 14 1 54 6 90
9 36 3 85 8 110 11 88 9 136 14 210 20 41 3 94 8 118 10 80 8 428 32 572 40
324 18 416 22 790 30 168 4 306 8 307 9 1 0 77 1 170 0 l168 0 -1 -105z"/>
<path d="M2890 3134 c-78 -16 -124 -38 -146 -72 -32 -49 -26 -103 15 -142 36
-35 141 -100 161 -100 24 0 103 51 137 89 52 57 76 128 59 177 -15 47 -120 69
-226 48z"/>
<path d="M3280 2686 c-34 -59 -104 -130 -155 -156 -90 -46 -164 -19 -230 83
-31 47 -45 58 -45 33 0 -19 -103 -122 -141 -142 -61 -31 -135 -37 -194 -16
-22 7 -44 15 -50 16 -24 5 -101 62 -153 113 -32 30 -64 59 -74 64 -27 15 -29
-16 -2 -52 29 -40 31 -48 4 -24 -19 18 -20 17 -20 -1 0 -11 7 -47 16 -79 9
-33 18 -70 20 -82 18 -90 134 -363 171 -401 7 -7 13 -17 13 -21 0 -18 108
-120 149 -140 50 -26 160 -51 199 -46 77 11 95 20 138 67 45 49 65 113 63 200
-4 141 -37 286 -88 383 -37 71 -37 74 -8 39 86 -101 236 -78 359 55 47 50 88
111 88 129 0 5 -8 12 -18 14 -13 4 -25 -6 -42 -36z"/>
<path d="M5506 2846 c-11 -6 -25 -15 -30 -19 -6 -4 -51 -35 -101 -69 -170
-115 -210 -143 -213 -150 -2 -5 -10 -8 -17 -8 -7 0 -15 -3 -17 -8 -1 -4 -46
-38 -98 -76 -164 -119 -322 -250 -412 -342 -118 -120 -167 -176 -174 -196 -3
-10 -9 -18 -13 -18 -5 0 -12 -15 -16 -32 -4 -18 -9 -37 -11 -43 -1 -5 -6 -21
-10 -35 -8 -28 -15 -1730 -7 -1730 5 0 175 120 183 129 3 3 34 31 70 61 64 54
197 184 275 271 76 84 222 285 290 400 107 183 241 496 271 634 1 6 10 39 19
75 28 106 53 235 61 315 2 28 8 79 11 115 15 141 7 492 -12 593 -3 16 -7 45
-9 65 -2 21 -8 47 -12 58 -8 18 -12 20 -28 10z"/>
<path d="M214 2188 c6 -94 13 -164 22 -218 3 -19 7 -44 9 -55 9 -57 19 -101
47 -210 17 -66 33 -130 35 -143 3 -12 9 -25 14 -28 5 -3 9 -13 9 -23 0 -10 9
-43 21 -72 12 -30 25 -63 29 -74 34 -87 141 -299 193 -385 151 -247 350 -484
544 -647 32 -26 60 -51 63 -54 11 -12 140 -109 145 -109 3 0 15 -8 26 -18 10
-11 32 -25 47 -33 15 -8 29 -17 32 -20 15 -16 175 -105 167 -92 -3 4 -8 24
-11 43 -3 19 -8 49 -11 65 -3 17 -8 39 -10 50 -2 11 -10 56 -19 100 -22 109
-35 175 -40 205 -3 14 -7 35 -10 46 -2 12 -7 38 -10 58 -3 20 -17 91 -31 159
-13 67 -27 136 -29 152 -6 29 -9 49 -21 105 -7 38 -17 93 -20 115 -2 11 -4 20
-5 20 -1 0 -3 11 -6 25 -10 59 -38 198 -49 252 -4 15 -8 41 -10 58 -3 18 -7
39 -9 49 -3 9 -8 32 -11 51 -3 19 -10 53 -15 75 -5 22 -12 60 -15 85 -4 24 -8
47 -10 50 -2 3 -6 23 -10 45 -16 106 -18 109 -65 126 -25 9 -54 19 -65 23 -47
18 -126 46 -205 74 -47 17 -119 42 -160 57 -41 15 -82 28 -90 30 -8 2 -62 20
-120 40 -121 41 -320 96 -320 88 0 -3 -7 0 -16 8 -14 11 -15 4 -10 -73z"/>
</g>
</svg>
